<svg width="300" height="560" viewBox="0 0 300 560" fill="none" xmlns="http://www.w3.org/2000/svg">
<path d="M2.81197 545.888H101.465L101.465 370.552H2.81197L2.81197 545.888Z" fill="#B2B2B2" fill-opacity="0.68"/>
<path d="M101.074 545.888H199.727L199.727 370.552H101.074L101.074 545.888Z" fill="#D1D1D1"/>
<path d="M109.936 204.753L121.818 265.277L84.7077 270.36C84.7077 270.36 81.4905 207.464 84.7077 207.125C87.925 206.82 109.936 204.753 109.936 204.753Z" fill="#F9D4BF"/>
<path d="M75.2151 143.956C75.2151 143.956 112.293 149.513 118.951 209.529C118.951 209.529 107.133 223.05 92.066 218.882L75.2151 143.956Z" fill="#FD9497"/>
<path d="M59.1287 141.889C59.1287 141.889 23.006 138.094 10.2961 165.171C-2.44559 192.247 34.6965 220.442 21.9548 282.491L102.036 277.984V223.254C102.036 223.254 116.626 200.617 95.9522 176.354C95.9522 176.354 94.7099 139.483 59.1287 141.889Z" fill="#F7BEB6"/>
<path d="M178.263 291.269C178.263 291.269 204.225 281.035 211.201 307.84C218.177 334.611 247.1 509.643 247.1 509.643H223.911L210.277 440.071C210.277 440.071 191.037 417.264 185.144 368.838L104.234 358.57L178.263 291.269Z" fill="#F9D4BF"/>
<path d="M125.194 355.316C125.194 355.316 138.955 354.91 163.388 346.641C187.82 338.339 205.244 347.116 195.624 376.395C186.004 405.64 137.395 541.192 137.395 541.192L118.983 535.329L134.878 447.56C134.878 447.56 138.605 404.013 155.87 378.496C155.87 378.496 119.556 380.427 107.133 378.394C94.7735 376.395 125.194 355.316 125.194 355.316Z" fill="#F9D4BF"/>
<path d="M21.9548 282.491C21.9548 282.491 -7.41487 321.767 27.9115 360.332C27.9115 360.332 46.1003 382.867 126.277 379.343C126.277 379.343 147.301 303.841 192.025 283.542L99.4562 270.359L21.9548 282.491Z" fill="#8A6873"/>
<path d="M61.1037 41.6151C61.1037 41.6151 70.6599 0.237904 37.5634 0.00068849C13.0675 -0.168751 5.77282 30.9742 35.8114 51.8153L61.1037 41.6151Z" fill="#190D08"/>
<path d="M34.6964 59.338C34.6964 59.338 28.7078 43.0719 45.7817 34.8371C62.8556 26.6023 68.3026 46.0878 68.3026 46.0878L34.6964 59.338Z" fill="#FD6C75"/>
<path d="M99.5518 96.3444C99.5518 96.3444 124.207 80.8237 97.545 49.6468C80.8852 30.1612 51.7067 31.2456 35.461 50.5617C19.2153 69.8779 34.5372 103.935 34.5372 103.935L45.5906 84.382L55.2743 69.2001L69.1309 63.3036L79.9933 64.1169L89.1991 65.3708L96.6212 68.6918L99.5518 96.3444Z" fill="#27160C"/>
<path d="M79.4135 108.885L51.7036 105.099L46.0951 151.553L73.805 155.339L79.4135 108.885Z" fill="#F9D4BF"/>
<path d="M48.8079 118.915C48.8079 118.915 51.8022 135.825 64.5757 139.247C68.5575 140.298 72.8897 139.078 75.3106 135.587C75.9795 134.639 76.4573 133.554 76.6166 132.334C77.2218 127.454 65.1172 118.915 65.1172 118.915H48.8079Z" fill="#F9D4BF"/>
<path d="M68.3346 130.944L66.9011 130.741C51.0059 128.572 39.7613 113.085 41.8 96.1752L43.4246 82.7556C45.4632 65.8455 60.0206 53.883 75.9159 56.0518L77.3493 56.2551C93.2446 58.424 104.489 73.9108 102.45 90.8209L100.826 104.241C98.7873 121.151 84.2298 133.113 68.3346 130.944Z" fill="#F9D4BF"/>
<path d="M44.9218 92.8189C44.9218 92.8189 64.8626 85.9057 64.3529 62.0824C64.3529 62.0824 65.6271 44.3252 48.171 60.7609C30.7149 77.1965 44.9218 92.8189 44.9218 92.8189Z" fill="#27160C"/>
<path d="M49.3174 99.3262C48.6166 105.019 43.7429 109.052 38.3596 108.307C33.008 107.561 29.2174 102.376 29.9182 96.6829C30.619 90.9898 35.4927 86.957 40.876 87.7026C46.2276 88.4142 50.0182 93.633 49.3174 99.3262Z" fill="#F9D4BF"/>
<path d="M55.7205 80.8906L54.8286 88.4138C52.7899 99.0207 48.5852 95.8013 47.0562 91.2264L55.7205 80.8906Z" fill="#27160C"/>
<path d="M105.509 77.0623C105.509 77.0623 85.1537 93.2947 55.3063 69.2342C34.7284 52.663 65.85 46.6987 65.85 46.6987L94.8692 53.0696L105.509 77.0623Z" fill="#27160C"/>
<path d="M46.1321 151.513C46.1321 151.513 63.5564 184.588 75.9158 174.422C89.2628 163.442 59.1286 141.889 59.1286 141.889L46.1321 151.513Z" fill="#F9D4BF"/>
<path d="M53.841 218.884C53.841 218.884 64.6077 239.996 71.966 256.567L150.455 251.755C150.455 251.755 166.032 238.2 178.232 249.654L166.191 265.039L67.9205 288.185C64.1617 289.066 60.2437 287.914 57.4723 285.135C48.7761 276.392 29.8547 256.025 20.6807 235.252L53.841 218.884Z" fill="#F9D4BF"/>
<path d="M271.692 186.316H175.237C172.052 186.316 169.312 188.688 168.675 191.975L150.518 282.626C149.627 287.065 152.812 291.267 157.08 291.267H255.16C258.377 291.267 261.148 288.827 261.753 285.472L278.318 194.822C279.082 190.416 275.897 186.316 271.692 186.316Z" fill="#C7C4C6"/>
<path d="M277.235 186.316H180.78C177.594 186.316 174.855 188.688 174.218 191.975L156.061 282.626C155.169 287.065 158.354 291.267 162.623 291.267H260.702C263.919 291.267 266.691 288.827 267.296 285.472L283.86 194.822C284.625 190.416 281.471 186.316 277.235 186.316Z" fill="#D1D1D1"/>
<path d="M153.067 283.54H87.1604C85.1536 283.54 83.5291 285.269 83.5291 287.403C83.5291 289.538 85.1536 291.267 87.1604 291.267H154.341L153.067 283.54Z" fill="#C7C4C6"/>
<path d="M217.508 236.436C217.508 242.604 222.222 247.619 228.02 247.619C233.817 247.619 238.532 242.604 238.532 236.436C238.532 230.268 233.817 225.253 228.02 225.253C222.222 225.253 217.508 230.235 217.508 236.436Z" fill="white"/>
<path d="M20.6805 151.988C19.3745 152.598 -23.8517 175.201 18.6737 245.248C18.6737 245.248 45.8454 245.722 61.5814 224.203C61.6133 224.203 56.3892 135.315 20.6805 151.988Z" fill="#FD9497"/>
<path d="M113.982 531.499C114.555 529.669 116.434 528.991 117.709 530.177C120.193 532.516 124.653 535.396 131.215 534.685C138.063 533.973 140.612 529.669 141.599 526.585C142.109 524.959 143.574 524.145 144.88 524.823L186.355 546.986C188.871 548.341 190.846 550.849 191.802 553.967C192.725 556.915 190.878 560.067 188.266 559.999L116.626 557.898C113.791 557.83 111.656 554.882 111.879 551.459L113.058 534.651C113.09 534.38 113.122 534.109 113.217 533.837L113.982 531.499Z" fill="#8A6873"/>
<path d="M218.559 502.492C218.687 500.56 220.311 499.374 221.808 500.187C224.771 501.746 229.772 503.271 235.952 500.763C242.354 498.154 243.788 493.308 243.979 490.055C244.075 488.36 245.285 487.14 246.718 487.445L292.206 497.307C294.978 497.917 297.494 499.78 299.214 502.525C300.839 505.101 299.82 508.659 297.303 509.303L227.638 527.23C224.898 527.941 222.095 525.705 221.49 522.316L218.496 505.779C218.432 505.508 218.432 505.236 218.432 504.932L218.559 502.492Z" fill="#8A6873"/>
</svg>
