<svg width="382" height="560" viewBox="0 0 382 560" fill="none" xmlns="http://www.w3.org/2000/svg">
<path d="M136.279 507.166L142.643 544.208L161.093 545.979L154.7 504.611L136.279 507.166Z" fill="#F9D4BF"/>
<path d="M140.103 541.653C140.482 540.346 141.855 539.853 142.847 540.637C144.745 542.204 148.16 544.091 153.036 543.424C158.115 542.756 159.925 539.679 160.597 537.531C160.947 536.398 162.027 535.789 162.991 536.224L197.526 550.623C199.453 551.494 200.971 553.207 201.76 555.355C202.519 557.387 201.205 559.623 199.278 559.652L142.701 560C140.599 560 138.906 558.026 139.023 555.616L139.519 543.888C139.519 543.685 139.548 543.511 139.607 543.308L140.103 541.653Z" fill="#5C5E64"/>
<path d="M61.6891 336.729H54.1572V555.122H61.6891V336.729Z" fill="#5C5E64"/>
<path d="M45.3701 291.821L99.3197 390.349L133.447 527.226H164.421L142.322 375.108L45.3701 291.821Z" fill="#F4DADB"/>
<path d="M89.8901 333.508H22.4533C12.7903 333.508 4.93726 325.727 4.93726 316.089C4.93726 306.48 12.7611 298.671 22.4533 298.671H89.8901C99.5532 298.671 107.406 306.48 107.406 316.089C107.406 325.727 99.5532 333.508 89.8901 333.508Z" fill="#FFEEE3"/>
<path d="M90.2988 333.507H25.4893V339.952H90.2988V333.507Z" fill="#5C5E64"/>
<path d="M90.2988 502.114H25.4893V508.559H90.2988V502.114Z" fill="#5C5E64"/>
<path d="M54.4202 113.372C41.4291 111.804 29.1094 119.613 24.1466 131.632C19.9427 141.763 16.4394 156.452 20.1762 173.493C31.5617 225.66 24.7596 261.744 24.7596 261.744H86.4454L86.2119 190.708C86.2119 190.708 90.4741 182.434 92.7804 171.606C96.0209 156.452 94.7947 154.478 85.8907 141.066L66.9442 118.074C66.9734 118.074 62.7403 114.359 54.4202 113.372Z" fill="#7D515E"/>
<path d="M166.611 163.71C170.727 155.524 180.711 152.215 188.944 156.308C197.176 160.401 200.504 170.329 196.388 178.516C192.272 186.702 182.288 190.012 174.055 185.918C165.822 181.854 162.494 171.897 166.611 163.71Z" fill="#FCC9A7" fill-opacity="0.68"/>
<path d="M170.26 158.92L138.906 188.53L150.817 201.71L175.252 180.896L170.26 158.92Z" fill="#F9D4BF"/>
<path d="M33.2842 159.327L90.0071 245.052C92.1966 248.333 96.6924 249.117 99.8745 246.736L168.333 193.263L154.466 169.603L101.509 209.839L64.492 141.763C59.5583 131.545 46.4505 128.439 37.4005 135.29C29.8686 140.98 28.0878 151.488 33.2842 159.327Z" fill="#7D515E"/>
<path d="M57.9817 126.348C54.3909 126.319 50.5665 124.838 47.7348 123.387C44.9322 121.964 43.1806 119.032 43.2098 115.897L43.7937 58.3013L69.1044 58.4174L68.5206 115.287C68.4914 121.819 63.762 126.377 57.9817 126.348Z" fill="#F9D4BF"/>
<path d="M68.6956 99.3203L58.2443 84.6021C58.2443 84.6021 51.851 101.41 68.6372 106.578L68.6956 99.3203Z" fill="#F2C09E"/>
<path d="M91.4958 58.5339C91.4082 75.6907 77.3662 89.5091 60.1128 89.422C42.8595 89.3349 28.9634 75.3714 29.0509 58.2146C29.1385 41.0579 43.1806 27.2395 60.4339 27.3266C77.6581 27.4137 91.5542 41.3771 91.4958 58.5339Z" fill="#F9D4BF"/>
<path d="M70.9144 99.4952C62.7403 99.4662 56.1134 92.8183 56.1718 84.6898L56.2593 63.4398L91.4667 58.5337L91.3791 79.3483C91.3207 90.5249 82.1831 99.5533 70.9144 99.4952Z" fill="#F9D4BF"/>
<path d="M90.5322 65.4722L97.3051 75.4875C98.2685 77.1132 97.0132 79.1163 94.9988 79.1163L87.0874 80.5678L90.5322 65.4722Z" fill="#F9D4BF"/>
<path d="M56.2885 71.9457L69.5715 71.4812C69.5715 71.4812 70.7101 60.0142 73.3083 57.2563C75.9065 54.4985 77.2202 42.2478 77.2202 42.2478C77.2202 42.2478 70.9436 49.8828 69.1044 57.779L96.9258 57.0822C96.9258 57.0822 101.071 23.5234 58.9452 21.8977C16.7898 20.272 17.9575 59.9271 26.2484 67.7943C32.8462 74.0648 43.5309 89.4508 43.5309 89.4508C43.5309 89.4508 43.0347 72.4101 56.2885 71.9457Z" fill="#4C181B"/>
<path d="M65.9222 67.8811C66.0974 72.7871 62.2439 76.8804 57.3394 77.0546C52.4057 77.2288 48.2894 73.3968 48.0851 68.5197C47.9099 63.6136 51.7634 59.5204 56.6679 59.3172C61.6016 59.1431 65.7179 62.975 65.9222 67.8811Z" fill="#F9D4BF"/>
<path d="M40.1737 17.6018C41.5166 28.6042 33.6636 38.5906 22.6285 39.955C11.5642 41.2904 1.52159 33.4813 0.149497 22.4789C-1.1934 11.4765 6.65961 1.49014 17.7239 0.154755C28.7883 -1.20966 38.8308 6.59942 40.1737 17.6018Z" fill="#4C1827"/>
<path d="M44.2024 119.874C44.2024 119.874 46.6255 127.393 80.4315 134.389L64.7254 113.139L44.2024 119.874Z" fill="#F9D4BF"/>
<path d="M57.9233 544.091L12.615 559.506H103.173L57.9233 544.091Z" fill="#5C5E64"/>
<path d="M61.3389 451.747L36.5537 481.387L54.3617 488.122L79.2345 456.74L61.3389 451.747Z" fill="#F9D4BF"/>
<path d="M37.4002 477.352C38.2761 476.336 39.7357 476.394 40.3196 477.526C41.4289 479.732 43.7644 482.809 48.5229 484.145C53.4566 485.538 58.8574 481.242 60.317 479.529C61.0761 478.629 62.3315 478.484 63.0321 479.297L93.3641 500.46C94.7653 502.027 95.466 504.204 95.3492 506.498C95.2324 508.646 93.1305 510.185 91.3497 509.43L31.328 494.334C29.4012 493.492 28.6422 490.996 29.7224 488.848L35.9697 479.152C36.0573 478.977 36.1741 478.803 36.2909 478.658L37.4002 477.352Z" fill="#5C5E64"/>
<path d="M22.9787 261.745C22.9787 261.745 4.4116 303.781 70.3888 326.163L115.989 368.286L45.3992 462.285L76.9573 473.636L162.669 382.946C169.004 375.601 169.267 364.338 163.282 356.674L86.4744 261.716H22.9787V261.745Z" fill="#F4DADB"/>
<path d="M382 224.616H156.597V237.099H382V224.616Z" fill="#BDC59D" fill-opacity="0.84"/>
<path d="M212.036 559.565V237.099" stroke="#2A272D" stroke-width="2.2811" stroke-miterlimit="10"/>
<path d="M324.752 559.565V237.099" stroke="#2A272D" stroke-width="2.2811" stroke-miterlimit="10"/>
<path d="M298.127 217.822H204.358V223.86H298.127V217.822Z" fill="#5C5E64"/>
<path d="M298.127 223.89L328.489 135.754L322.124 134.245L292.376 218.896L298.127 223.89Z" fill="#5C5E64"/>
</svg>
